<?xml version="1.0" encoding="utf-8"?>
<!-- Generator: Adobe Illustrator 19.1.1, SVG Export Plug-In . SVG Version: 6.00 Build 0)  -->
<svg version="1.1" xmlns="http://www.w3.org/2000/svg" xmlns:xlink="http://www.w3.org/1999/xlink" x="0px" y="0px"
	 viewBox="0 0 271 271" style="enable-background:new 0 0 271 271;" xml:space="preserve">
<style type="text/css">
	.st0{display:none;}
	.st1{display:inline;}
	.st2{fill:#DD7F29;}
	.st3{fill:#FFFFFF;}
	.st4{fill:none;stroke:#000000;stroke-miterlimit:10;}
	.st5{display:inline;fill:none;stroke:#000000;stroke-width:0.5;stroke-linecap:round;stroke-linejoin:round;}
	.st6{stroke:#000000;stroke-width:13;}
	.st7{fill:none;stroke:#DD7F29;stroke-width:9;stroke-linecap:round;}
	.st8{fill:none;stroke:#000000;stroke-width:0.5;stroke-linecap:round;stroke-linejoin:round;}
</style>
<g id="Layer_1" class="st0">
	<g id="XMLID_1_" class="st1">
		<g>
			<polygon class="st2" points="-1001.6,141.7 -1074.1,141.7 -1082.3,135.5 -1074.1,129.3 -1001.6,129.3 			"/>
			<path d="M-1074.1,129.3l109-82.3h4V35.6c32.1,21.7,53.1,58.3,53.1,99.9s-21.1,78.3-53.1,99.9V224h-4l-109-82.3h72.5v-12.4
				H-1074.1z"/>
			<path d="M-1028.5,15c24.3,0,46.9,7.2,65.8,19.6h-5.2h-116.3h-10.1C-1075.4,22.2-1052.8,15-1028.5,15z"/>
			<path d="M-1610.5,0c74.8,0,135.5,60.7,135.5,135.5c0,74.8-60.7,135.5-135.5,135.5S-1746,210.3-1746,135.5
				C-1746,60.7-1685.3,0-1610.5,0z M-1490,135.5c0-41.6-21.1-78.3-53.1-99.9v-1h-1.5c-18.9-12.4-41.5-19.6-65.8-19.6
				c-24.3,0-46.9,7.2-65.8,19.6h-1.3h-0.3v1c-32.1,21.7-53.1,58.3-53.1,99.9s21.1,78.3,53.1,99.9v1h0.3h1.3
				c18.9,12.4,41.5,19.5,65.8,19.5s46.9-7.2,65.8-19.5h1.5v-1C-1511.1,213.8-1490,177.1-1490,135.5z"/>
			<path class="st2" d="M-1028.5,0C-953.7,0-893,60.7-893,135.5c0,74.8-60.7,135.5-135.5,135.5S-1164,210.3-1164,135.5
				C-1164,60.7-1103.3,0-1028.5,0z M-908,135.5c0-41.6-21.1-78.3-53.1-99.9v-1h-1.5c-18.9-12.4-41.5-19.6-65.8-19.6
				c-24.3,0-46.9,7.2-65.8,19.6h-1.3h-0.3v1c-32.1,21.7-53.1,58.3-53.1,99.9s21.1,78.3,53.1,99.9v1h0.3h1.3
				c18.9,12.4,41.5,19.5,65.8,19.5c24.3,0,46.9-7.2,65.8-19.5h1.5v-1C-929.1,213.8-908,177.1-908,135.5z"/>
			<path class="st3" d="M-961.1,235.4v1h-1.5C-962.2,236.1-961.7,235.8-961.1,235.4z"/>
			<path class="st2" d="M-961.1,224v11.4c-0.5,0.3-1,0.7-1.5,1h-5.2v0l5.1-10.7l-2.3-1.7H-961.1z"/>
			<path class="st2" d="M-961.1,35.6V47h-4l2.3-1.7l-5.1-10.7v0h5.2C-962.2,34.9-961.6,35.2-961.1,35.6z"/>
			<path class="st3" d="M-961.1,34.6v1c-0.5-0.3-1-0.7-1.5-1H-961.1z"/>
			<path d="M-967.9,236.4h5.2c-18.9,12.4-41.5,19.5-65.8,19.5c-24.3,0-46.9-7.2-65.8-19.5h10.1H-967.9z"/>
			<polygon class="st2" points="-967.9,34.6 -962.8,45.2 -965.1,47 -984.3,47 			"/>
			<polygon class="st2" points="-962.8,225.8 -967.9,236.4 -984.3,224 -965.1,224 			"/>
			<polygon class="st2" points="-965.1,47 -1074.1,129.3 -1084.3,129.3 -1084.3,122.5 -984.3,47 			"/>
			<polygon class="st2" points="-965.1,224 -984.3,224 -1084.3,148.5 -1084.3,141.7 -1074.1,141.7 			"/>
			<polygon class="st2" points="-967.9,236.4 -967.9,236.4 -1084.3,236.4 -1084.3,224 -984.3,224 			"/>
			<polygon class="st2" points="-967.9,34.6 -967.9,34.6 -984.3,47 -1084.3,47 -1084.3,34.6 			"/>
			<polygon points="-984.3,47 -1084.3,122.5 -1084.3,47 			"/>
			<polygon points="-1084.3,148.5 -984.3,224 -1084.3,224 			"/>
			<polygon class="st2" points="-1074.1,129.3 -1082.3,135.5 -1084.3,134 -1084.3,129.3 			"/>
			<polygon class="st2" points="-1074.1,141.7 -1084.3,141.7 -1084.3,137 -1082.3,135.5 			"/>
			<polygon class="st2" points="-1084.3,134 -1082.3,135.5 -1084.3,137 			"/>
			<path class="st2" d="M-1084.3,224v12.4h-10.1c-0.4-0.3-0.9-0.6-1.3-0.8V224H-1084.3z"/>
			<polygon class="st2" points="-1084.3,148.5 -1084.3,224 -1095.6,224 -1095.6,141.7 -1093.3,141.7 			"/>
			<polygon class="st2" points="-1084.3,141.7 -1084.3,148.5 -1093.3,141.7 -1089.6,141.7 			"/>
			<polygon class="st2" points="-1084.3,137 -1084.3,141.7 -1089.6,141.7 -1089.6,141 			"/>
			<polygon class="st2" points="-1084.3,134 -1084.3,137 -1089.6,141 -1092.3,135.5 -1089.6,130 			"/>
			<polygon class="st2" points="-1084.3,129.3 -1084.3,134 -1089.6,130 -1089.6,129.3 			"/>
			<polygon class="st2" points="-1084.3,122.5 -1084.3,129.3 -1089.6,129.3 -1093.3,129.3 			"/>
			<polygon class="st2" points="-1084.3,47 -1084.3,122.5 -1093.3,129.3 -1095.6,129.3 -1095.6,47 			"/>
			<path class="st2" d="M-1084.3,34.6V47h-11.3V35.4c0.4-0.3,0.8-0.6,1.3-0.8H-1084.3z"/>
			<polygon class="st2" points="-1089.6,141 -1089.6,141.7 -1093.3,141.7 -1094.7,140.6 -1092.3,135.5 			"/>
			<polygon class="st2" points="-1089.6,129.3 -1089.6,130 -1092.3,135.5 -1094.7,130.4 -1093.3,129.3 			"/>
			<polygon class="st2" points="-1094.7,130.4 -1092.3,135.5 -1094.7,140.6 -1093.3,141.7 -1095.6,141.7 -1095.6,129.3 
				-1093.3,129.3 			"/>
			<path class="st3" d="M-1094.3,236.4h-1.3v-0.8C-1095.2,235.9-1094.8,236.2-1094.3,236.4z"/>
			<path class="st3" d="M-1094.3,34.6c-0.4,0.3-0.8,0.5-1.3,0.8v-0.8H-1094.3z"/>
			<path class="st3" d="M-1095.6,235.6v0.8h-0.3v-1C-1095.8,235.5-1095.7,235.6-1095.6,235.6z"/>
			<path class="st3" d="M-1095.6,224v11.6c-0.1-0.1-0.2-0.1-0.3-0.2V224H-1095.6z"/>
			<path d="M-1095.6,141.7V224h-0.3v11.4c-32.1-21.7-53.1-58.3-53.1-99.9s21.1-78.3,53.1-99.9V47h0.3v82.3h-0.3v12.4H-1095.6z"/>
			<rect x="-1095.9" y="129.3" class="st3" width="0.3" height="12.4"/>
			<path class="st3" d="M-1095.6,35.4V47h-0.3V35.6C-1095.8,35.5-1095.7,35.4-1095.6,35.4z"/>
			<path class="st3" d="M-1095.6,34.6v0.8c-0.1,0.1-0.2,0.1-0.3,0.2v-1H-1095.6z"/>
			<path class="st2" d="M-1319.5,0c74.8,0,135.5,60.7,135.5,135.5c0,74.8-60.7,135.5-135.5,135.5S-1455,210.3-1455,135.5
				C-1455,60.7-1394.3,0-1319.5,0z M-1199,135.5c0-37-16.7-70.1-43-92.3c-21-17.6-48-28.3-77.5-28.3s-56.6,10.6-77.5,28.3
				c-26.3,22.1-43,55.2-43,92.3c0,37,16.7,70.2,43,92.3c21,17.6,48,28.3,77.5,28.3s56.6-10.6,77.5-28.3
				C-1215.7,205.7-1199,172.5-1199,135.5z"/>
			<path d="M-1242,43.2c26.3,22.1,43,55.2,43,92.3c0,37-16.7,70.2-43,92.3l-0.2-0.2v-11.3h-4.6l-125.1-75.1h129.7v-11.3h-129.7
				l125.1-75.1h4.6V43.4L-1242,43.2z"/>
			<path d="M-1242,43.2l-0.2,0.2h-7.8h-135.6h-11.3l-0.2-0.2c21-17.6,48-28.3,77.5-28.3S-1262.9,25.6-1242,43.2z"/>
			<path d="M-1242.1,227.6l0.2,0.2c-21,17.6-48,28.3-77.5,28.3s-56.6-10.6-77.5-28.3l0.2-0.2h11.3h135.6H-1242.1z"/>
			<polygon class="st2" points="-1242.1,216.2 -1242.1,227.6 -1249.9,227.6 -1249.9,227.5 -1244.1,217.8 -1246.7,216.2 			"/>
			<polygon class="st2" points="-1242.1,129.8 -1242.1,141.2 -1371.9,141.2 -1381.3,135.5 -1371.9,129.8 			"/>
			<polygon class="st2" points="-1242.1,43.4 -1242.1,54.8 -1246.7,54.8 -1244.1,53.2 -1249.9,43.5 -1249.9,43.4 			"/>
			<polygon class="st2" points="-1249.9,43.5 -1244.1,53.2 -1246.7,54.8 -1268.8,54.8 			"/>
			<polygon class="st2" points="-1244.1,217.8 -1249.9,227.5 -1268.8,216.2 -1246.7,216.2 			"/>
			<polygon class="st2" points="-1246.7,54.8 -1371.9,129.8 -1385.5,129.8 -1385.5,124.8 -1268.8,54.8 			"/>
			<polygon class="st2" points="-1246.7,216.2 -1268.8,216.2 -1385.5,146.2 -1385.5,141.2 -1371.9,141.2 			"/>
			<polygon class="st2" points="-1249.9,227.5 -1249.9,227.6 -1385.5,227.6 -1385.5,216.2 -1268.8,216.2 			"/>
			<polygon class="st2" points="-1249.9,43.4 -1249.9,43.5 -1268.8,54.8 -1385.5,54.8 -1385.5,43.4 			"/>
			<polygon points="-1268.8,54.8 -1385.5,124.8 -1385.5,54.8 			"/>
			<polygon points="-1268.8,216.2 -1385.5,216.2 -1385.5,146.2 			"/>
			<polygon class="st2" points="-1371.9,129.8 -1381.3,135.5 -1385.5,133 -1385.5,129.8 			"/>
			<polygon class="st2" points="-1371.9,141.2 -1385.5,141.2 -1385.5,138 -1381.3,135.5 			"/>
			<polygon class="st2" points="-1385.5,133 -1381.3,135.5 -1385.5,138 			"/>
			<rect x="-1396.9" y="216.2" class="st2" width="11.3" height="11.3"/>
			<polygon class="st2" points="-1385.5,146.2 -1385.5,216.2 -1396.9,216.2 -1396.9,141.2 -1393.9,141.2 			"/>
			<polygon class="st2" points="-1385.5,141.2 -1385.5,146.2 -1393.9,141.2 -1389.7,141.2 			"/>
			<polygon class="st2" points="-1385.5,138 -1385.5,141.2 -1389.7,141.2 -1389.7,140.5 			"/>
			<polygon class="st2" points="-1385.5,133 -1385.5,138 -1389.7,140.5 -1392.7,135.5 -1389.7,130.5 			"/>
			<polygon class="st2" points="-1385.5,129.8 -1385.5,133 -1389.7,130.5 -1389.7,129.8 			"/>
			<polygon class="st2" points="-1385.5,124.8 -1385.5,129.8 -1389.7,129.8 -1393.9,129.8 			"/>
			<polygon class="st2" points="-1385.5,54.8 -1385.5,124.8 -1393.9,129.8 -1396.9,129.8 -1396.9,54.8 			"/>
			<rect x="-1396.9" y="43.4" class="st2" width="11.3" height="11.3"/>
			<polygon class="st2" points="-1389.7,140.5 -1389.7,141.2 -1393.9,141.2 -1395.5,140.2 -1392.7,135.5 			"/>
			<polygon class="st2" points="-1389.7,129.8 -1389.7,130.5 -1392.7,135.5 -1395.5,130.8 -1393.9,129.8 			"/>
			<polygon class="st2" points="-1395.5,130.8 -1392.7,135.5 -1395.5,140.2 -1393.9,141.2 -1396.9,141.2 -1396.9,129.8 
				-1393.9,129.8 			"/>
			<path d="M-1396.9,216.2v11.3l-0.2,0.2c-26.3-22.1-43-55.2-43-92.3c0-37,16.7-70.1,43-92.3l0.2,0.2v11.3v75.1v11.3V216.2z"/>
			<path class="st3" d="M-1543.1,235.4v1h-1.5C-1544.2,236.1-1543.7,235.8-1543.1,235.4z"/>
			<path class="st2" d="M-1543.1,224v11.4c-0.5,0.3-1,0.7-1.5,1h-5.2v0l5.1-10.7l-2.3-1.7H-1543.1z"/>
			<polygon class="st2" points="-1543.1,129.3 -1543.1,141.7 -1656.1,141.7 -1664.3,135.5 -1656.1,129.3 			"/>
			<path class="st2" d="M-1543.1,35.6V47h-4l2.3-1.7l-5.1-10.7v0h5.2C-1544.2,34.9-1543.6,35.2-1543.1,35.6z"/>
			<path class="st3" d="M-1543.1,34.6v1c-0.5-0.3-1-0.7-1.5-1H-1543.1z"/>
			<polygon class="st2" points="-1549.9,34.6 -1544.8,45.2 -1547.1,47 -1566.3,47 			"/>
			<polygon class="st2" points="-1544.8,225.8 -1549.9,236.4 -1566.3,224 -1547.1,224 			"/>
			<polygon class="st2" points="-1547.1,47 -1656.1,129.3 -1666.3,129.3 -1666.3,122.5 -1566.3,47 			"/>
			<polygon class="st2" points="-1547.1,224 -1566.3,224 -1666.3,148.5 -1666.3,141.7 -1656.1,141.7 			"/>
			<polygon class="st2" points="-1549.9,236.4 -1549.9,236.4 -1666.3,236.4 -1666.3,224 -1566.3,224 			"/>
			<polygon class="st2" points="-1549.9,34.6 -1549.9,34.6 -1566.3,47 -1666.3,47 -1666.3,34.6 			"/>
			<polygon class="st2" points="-1656.1,129.3 -1664.3,135.5 -1666.3,134 -1666.3,129.3 			"/>
			<polygon class="st2" points="-1656.1,141.7 -1666.3,141.7 -1666.3,137 -1664.3,135.5 			"/>
			<polygon class="st2" points="-1666.3,134 -1664.3,135.5 -1666.3,137 			"/>
			<path class="st2" d="M-1666.3,224v12.4h-10.1c-0.4-0.3-0.9-0.6-1.3-0.8V224H-1666.3z"/>
			<polygon class="st2" points="-1666.3,148.5 -1666.3,224 -1677.6,224 -1677.6,141.7 -1675.3,141.7 			"/>
			<polygon class="st2" points="-1666.3,141.7 -1666.3,148.5 -1675.3,141.7 -1671.6,141.7 			"/>
			<polygon class="st2" points="-1666.3,137 -1666.3,141.7 -1671.6,141.7 -1671.6,141 			"/>
			<polygon class="st2" points="-1666.3,134 -1666.3,137 -1671.6,141 -1674.3,135.5 -1671.6,130 			"/>
			<polygon class="st2" points="-1666.3,129.3 -1666.3,134 -1671.6,130 -1671.6,129.3 			"/>
			<polygon class="st2" points="-1666.3,122.5 -1666.3,129.3 -1671.6,129.3 -1675.3,129.3 			"/>
			<polygon class="st2" points="-1666.3,47 -1666.3,122.5 -1675.3,129.3 -1677.6,129.3 -1677.6,47 			"/>
			<path class="st2" d="M-1666.3,34.6V47h-11.3V35.4c0.4-0.3,0.8-0.6,1.3-0.8H-1666.3z"/>
			<polygon class="st2" points="-1671.6,141 -1671.6,141.7 -1675.3,141.7 -1676.7,140.6 -1674.3,135.5 			"/>
			<polygon class="st2" points="-1671.6,129.3 -1671.6,130 -1674.3,135.5 -1676.7,130.4 -1675.3,129.3 			"/>
			<polygon class="st2" points="-1676.7,130.4 -1674.3,135.5 -1676.7,140.6 -1675.3,141.7 -1677.6,141.7 -1677.6,129.3 
				-1675.3,129.3 			"/>
			<path class="st3" d="M-1676.3,236.4h-1.3v-0.8C-1677.2,235.9-1676.8,236.2-1676.3,236.4z"/>
			<path class="st3" d="M-1676.3,34.6c-0.4,0.3-0.8,0.5-1.3,0.8v-0.8H-1676.3z"/>
			<path class="st3" d="M-1677.6,235.6v0.8h-0.3v-1C-1677.8,235.5-1677.7,235.6-1677.6,235.6z"/>
			<path class="st3" d="M-1677.6,224v11.6c-0.1-0.1-0.2-0.1-0.3-0.2V224H-1677.6z"/>
			<rect x="-1677.9" y="129.3" class="st3" width="0.3" height="12.4"/>
			<path class="st3" d="M-1677.6,35.4V47h-0.3V35.6C-1677.8,35.5-1677.7,35.4-1677.6,35.4z"/>
			<path class="st3" d="M-1677.6,34.6v0.8c-0.1,0.1-0.2,0.1-0.3,0.2v-1H-1677.6z"/>
			<path d="M-1901.5,0c74.8,0,135.5,60.7,135.5,135.5c0,74.8-60.7,135.5-135.5,135.5S-2037,210.3-2037,135.5
				C-2037,60.7-1976.3,0-1901.5,0z M-1781,135.5c0-37-16.7-70.1-43-92.3c-21-17.6-48-28.3-77.5-28.3s-56.6,10.6-77.5,28.3
				c-26.3,22.1-43,55.2-43,92.3c0,37,16.7,70.2,43,92.3c21,17.6,48,28.3,77.5,28.3s56.6-10.6,77.5-28.3
				C-1797.7,205.7-1781,172.5-1781,135.5z"/>
			<polygon class="st2" points="-1824.1,216.2 -1824.1,227.6 -1831.9,227.6 -1831.9,227.5 -1826.1,217.8 -1828.7,216.2 			"/>
			<polygon class="st2" points="-1824.1,129.8 -1824.1,141.2 -1953.9,141.2 -1963.3,135.5 -1953.9,129.8 			"/>
			<polygon class="st2" points="-1824.1,43.4 -1824.1,54.8 -1828.7,54.8 -1826.1,53.2 -1831.9,43.5 -1831.9,43.4 			"/>
			<polygon class="st2" points="-1831.9,43.5 -1826.1,53.2 -1828.7,54.8 -1850.8,54.8 			"/>
			<polygon class="st2" points="-1826.1,217.8 -1831.9,227.5 -1850.8,216.2 -1828.7,216.2 			"/>
			<polygon class="st2" points="-1828.7,54.8 -1953.9,129.8 -1967.5,129.8 -1967.5,124.8 -1850.8,54.8 			"/>
			<polygon class="st2" points="-1828.7,216.2 -1850.8,216.2 -1967.5,146.2 -1967.5,141.2 -1953.9,141.2 			"/>
			<polygon class="st2" points="-1831.9,227.5 -1831.9,227.6 -1967.5,227.6 -1967.5,216.2 -1850.8,216.2 			"/>
			<polygon class="st2" points="-1831.9,43.4 -1831.9,43.5 -1850.8,54.8 -1967.5,54.8 -1967.5,43.4 			"/>
			<polygon class="st2" points="-1953.9,129.8 -1963.3,135.5 -1967.5,133 -1967.5,129.8 			"/>
			<polygon class="st2" points="-1953.9,141.2 -1967.5,141.2 -1967.5,138 -1963.3,135.5 			"/>
			<polygon class="st2" points="-1967.5,133 -1963.3,135.5 -1967.5,138 			"/>
			<rect x="-1978.9" y="216.2" class="st2" width="11.3" height="11.3"/>
			<polygon class="st2" points="-1967.5,146.2 -1967.5,216.2 -1978.9,216.2 -1978.9,141.2 -1975.9,141.2 			"/>
			<polygon class="st2" points="-1967.5,141.2 -1967.5,146.2 -1975.9,141.2 -1971.7,141.2 			"/>
			<polygon class="st2" points="-1967.5,138 -1967.5,141.2 -1971.7,141.2 -1971.7,140.5 			"/>
			<polygon class="st2" points="-1967.5,133 -1967.5,138 -1971.7,140.5 -1974.7,135.5 -1971.7,130.5 			"/>
			<polygon class="st2" points="-1967.5,129.8 -1967.5,133 -1971.7,130.5 -1971.7,129.8 			"/>
			<polygon class="st2" points="-1967.5,124.8 -1967.5,129.8 -1971.7,129.8 -1975.9,129.8 			"/>
			<polygon class="st2" points="-1967.5,54.8 -1967.5,124.8 -1975.9,129.8 -1978.9,129.8 -1978.9,54.8 			"/>
			<rect x="-1978.9" y="43.4" class="st2" width="11.3" height="11.3"/>
			<polygon class="st2" points="-1971.7,140.5 -1971.7,141.2 -1975.9,141.2 -1977.5,140.2 -1974.7,135.5 			"/>
			<polygon class="st2" points="-1971.7,129.8 -1971.7,130.5 -1974.7,135.5 -1977.5,130.8 -1975.9,129.8 			"/>
			<polygon class="st2" points="-1977.5,130.8 -1974.7,135.5 -1977.5,140.2 -1975.9,141.2 -1978.9,141.2 -1978.9,129.8 
				-1975.9,129.8 			"/>
		</g>
		<g>
			<path class="st4" d="M-1184,135.5c0,74.8-60.7,135.5-135.5,135.5S-1455,210.3-1455,135.5C-1455,60.7-1394.3,0-1319.5,0
				S-1184,60.7-1184,135.5z"/>
			<path class="st4" d="M-893,135.5c0,74.8-60.7,135.5-135.5,135.5S-1164,210.3-1164,135.5C-1164,60.7-1103.3,0-1028.5,0
				S-893,60.7-893,135.5z"/>
		</g>
	</g>
	<g id="XMLID_3_" class="st1">
		<g>
			<path d="M-838.7,68.4v1.3c-12.4,18.9-19.5,41.5-19.5,65.8s7.2,46.9,19.5,65.8v1.5h1c21.7,32.1,58.3,53.1,99.9,53.1
				c41.6,0,78.3-21.1,99.9-53.1h1v-1.5c12.4-18.9,19.6-41.5,19.6-65.8c0-24.3-7.2-46.9-19.6-65.8v-1.3v-0.3h-1
				C-659.5,36.1-696.1,15-737.7,15c-41.6,0-78.3,21.1-99.9,53.1h-1V68.4z M-737.7,0c74.8,0,135.5,60.7,135.5,135.5
				S-662.9,271-737.7,271c-74.8,0-135.5-60.7-135.5-135.5S-812.6,0-737.7,0z"/>
			<path class="st2" d="M-636.8,196.1L-636.8,196.1l0,5.2c-0.3,0.5-0.7,1-1,1.5h-11.4v-4l1.7,2.3L-636.8,196.1z"/>
			<polygon class="st2" points="-649.2,179.7 -636.8,196.1 -647.5,201.2 -649.2,198.9 			"/>
			<polygon class="st2" points="-636.8,79.7 -636.8,196.1 -636.8,196.1 -649.2,179.7 -649.2,79.7 			"/>
			<path class="st2" d="M-636.8,69.7v10.1h-12.4V68.4h11.6C-637.3,68.8-637,69.2-636.8,69.7z"/>
			<polygon class="st2" points="-649.2,68.4 -649.2,79.7 -724.7,79.7 -731.5,70.7 -731.5,68.4 			"/>
			<polygon class="st2" points="-731.5,70.7 -724.7,79.7 -731.5,79.7 			"/>
			<polygon class="st2" points="-649.2,179.7 -649.2,198.9 -731.5,89.9 -731.5,79.7 -724.7,79.7 			"/>
			<polygon class="st2" points="-731.5,89.9 -731.5,202.9 -743.9,202.9 -743.9,89.9 -737.7,81.7 			"/>
			<polygon class="st2" points="-731.5,79.7 -731.5,89.9 -737.7,81.7 -736.3,79.7 			"/>
			<polygon class="st2" points="-737.7,81.7 -743.9,89.9 -743.9,79.7 -739.2,79.7 			"/>
			<polygon class="st2" points="-736.3,79.7 -737.7,81.7 -739.2,79.7 			"/>
			<polygon class="st2" points="-732.2,74.4 -736.3,79.7 -739.2,79.7 -743.2,74.4 -737.7,71.7 			"/>
			<polygon class="st2" points="-731.5,70.7 -731.5,79.7 -736.3,79.7 -732.2,74.4 -737.7,71.7 -732.6,69.3 			"/>
			<polygon class="st2" points="-732.6,69.3 -737.7,71.7 -742.9,69.3 -743.9,70.7 -743.9,68.4 -731.5,68.4 -731.5,70.7 			"/>
			<polygon class="st2" points="-743.9,79.7 -743.9,70.7 -742.9,69.3 -737.7,71.7 -743.2,74.4 -739.2,79.7 			"/>
			<polygon class="st2" points="-743.9,70.7 -743.9,79.7 -750.8,79.7 			"/>
			<polygon class="st2" points="-743.9,70.7 -750.8,79.7 -826.2,79.7 -826.2,68.4 -743.9,68.4 			"/>
			<polygon class="st2" points="-743.9,79.7 -743.9,89.9 -826.2,198.9 -826.2,179.7 -750.8,79.7 			"/>
			<path class="st2" d="M-838.7,196.1l10.7,5.1l1.7-2.3v4h-11.4c-0.3-0.5-0.7-1-1-1.5L-838.7,196.1L-838.7,196.1z"/>
			<polygon class="st2" points="-826.2,179.7 -826.2,198.9 -828,201.2 -838.7,196.1 			"/>
			<polygon class="st2" points="-826.2,79.7 -826.2,179.7 -838.7,196.1 -838.7,196.1 -838.7,79.7 			"/>
			<path class="st2" d="M-826.2,68.4v11.3h-12.4V69.7c0.3-0.4,0.5-0.9,0.8-1.3H-826.2z"/>
		</g>
		<g>
		</g>
	</g>
	<g id="XMLID_2_" class="st1">
		<g>
			<path d="M-345.8,69.7c12.4,18.9,19.6,41.5,19.6,65.8s-7.2,46.9-19.6,65.8v-5.2V79.7V69.7z"/>
			<path class="st2" d="M-345.8,69.7v10.1h-12.4V68.4h11.6C-346.3,68.8-346,69.2-345.8,69.7z"/>
			<path class="st2" d="M-345.8,196.1v5.2c-0.3,0.5-0.7,1-1,1.5h-11.4v-4l1.7,2.3L-345.8,196.1L-345.8,196.1z"/>
			<polygon class="st2" points="-345.8,79.7 -345.8,196.1 -345.8,196.1 -358.2,179.7 -358.2,79.7 			"/>
			<polygon class="st2" points="-358.2,179.7 -345.8,196.1 -356.5,201.2 -358.2,198.9 			"/>
			<path d="M-346.8,68.1h-11.4v0.3h-82.3v-0.3h-12.4v0.3h-82.3v-0.3h-11.4C-525,36.1-488.3,15-446.7,15S-368.5,36.1-346.8,68.1z"/>
			<path d="M-358.2,202.9h11.4c-21.7,32.1-58.3,53.1-99.9,53.1s-78.3-21.1-99.9-53.1h11.4v-4l82.3-109v112.9h12.4V89.9l82.3,109
				V202.9z"/>
			<polygon class="st2" points="-358.2,179.7 -358.2,198.9 -440.5,89.9 -440.5,79.7 -433.7,79.7 			"/>
			<polygon points="-358.2,79.7 -358.2,179.7 -433.7,79.7 			"/>
			<polygon class="st2" points="-358.2,68.4 -358.2,79.7 -433.7,79.7 -440.5,70.7 -440.5,68.4 			"/>
			<polygon class="st2" points="-440.5,70.7 -433.7,79.7 -440.5,79.7 			"/>
			<polygon class="st2" points="-440.5,89.9 -440.5,202.9 -452.9,202.9 -452.9,89.9 -446.7,81.7 			"/>
			<polygon class="st2" points="-440.5,79.7 -440.5,89.9 -446.7,81.7 -445.3,79.7 			"/>
			<polygon class="st2" points="-440.5,70.7 -440.5,79.7 -445.3,79.7 -441.2,74.4 -446.7,71.7 -441.6,69.3 			"/>
			<polygon class="st2" points="-440.5,68.4 -440.5,70.7 -441.6,69.3 -446.7,71.7 -451.9,69.3 -452.9,70.7 -452.9,68.4 			"/>
			<polygon class="st2" points="-441.2,74.4 -445.3,79.7 -448.2,79.7 -452.2,74.4 -446.7,71.7 			"/>
			<polygon class="st2" points="-445.3,79.7 -446.7,81.7 -448.2,79.7 			"/>
			<polygon class="st2" points="-446.7,71.7 -452.2,74.4 -448.2,79.7 -452.9,79.7 -452.9,70.7 -451.9,69.3 			"/>
			<polygon class="st2" points="-446.7,81.7 -452.9,89.9 -452.9,79.7 -448.2,79.7 			"/>
			<polygon class="st2" points="-452.9,79.7 -452.9,89.9 -535.2,198.9 -535.2,179.7 -459.8,79.7 			"/>
			<polygon class="st2" points="-452.9,70.7 -452.9,79.7 -459.8,79.7 			"/>
			<polygon class="st2" points="-452.9,68.4 -452.9,70.7 -459.8,79.7 -535.2,79.7 -535.2,68.4 			"/>
			<polygon points="-459.8,79.7 -535.2,179.7 -535.2,79.7 			"/>
			<path class="st2" d="M-535.2,198.9v4h-11.4c-0.3-0.5-0.7-1-1-1.5v-5.2h0l10.7,5.1L-535.2,198.9z"/>
			<polygon class="st2" points="-535.2,179.7 -535.2,198.9 -537,201.2 -547.7,196.1 			"/>
			<polygon class="st2" points="-535.2,79.7 -535.2,179.7 -547.7,196.1 -547.7,196.1 -547.7,79.7 			"/>
			<path class="st2" d="M-535.2,68.4v11.3h-12.4V69.7c0.3-0.4,0.5-0.9,0.8-1.3H-535.2z"/>
			<path d="M-547.7,69.7v10.1v116.3v5.2c-12.4-18.9-19.5-41.5-19.5-65.8S-560,88.6-547.7,69.7z"/>
		</g>
		<g>
			<path class="st4" d="M-446.7,271c-74.8,0-135.5-60.7-135.5-135.5S-521.6,0-446.7,0c74.8,0,135.5,60.7,135.5,135.5
				S-371.9,271-446.7,271z"/>
		</g>
	</g>
	<g id="XMLID_4_" class="st1">
		<g>
			<rect x="-217.8" y="34.6" class="st2" width="11.3" height="12.4"/>
			<polygon class="st2" points="-90.1,34.6 -83.4,34.6 -83.4,47 -87.3,47 -85.1,45.2 -90.1,34.6 			"/>
			<polygon class="st2" points="-206.5,34.6 -90.1,34.6 -90.1,34.6 -106.6,47 -206.5,47 			"/>
			<polygon class="st2" points="-106.6,47 -90.1,34.6 -85.1,45.2 -87.3,47 			"/>
			<polygon class="st2" points="-106.6,47 -87.3,47 -196.3,129.3 -206.5,129.3 -206.5,122.5 			"/>
			<polygon class="st2" points="-217.8,47 -206.5,47 -206.5,122.5 -215.5,129.3 -217.8,129.3 			"/>
			<polygon class="st2" points="-215.5,129.3 -206.5,122.5 -206.5,129.3 -211.8,129.3 			"/>
			<polygon class="st2" points="-196.3,129.3 -83.4,129.3 -83.4,141.7 -196.3,141.7 -204.5,135.5 			"/>
			<polygon class="st2" points="-206.5,129.3 -196.3,129.3 -204.5,135.5 -206.5,134 			"/>
			<polygon class="st2" points="-211.8,129.3 -206.5,129.3 -206.5,134 -211.8,130 			"/>
			<polygon class="st2" points="-215.5,129.3 -211.8,129.3 -211.8,130 -214.5,135.5 -216.9,130.4 			"/>
			<polygon class="st2" points="-217.8,129.3 -215.5,129.3 -216.9,130.4 -214.5,135.5 -216.9,140.6 -215.5,141.7 -217.8,141.7 			
				"/>
			<polygon class="st2" points="-211.8,130 -206.5,134 -206.5,137 -211.8,141 -214.5,135.5 			"/>
			<polygon class="st2" points="-206.5,134 -204.5,135.5 -206.5,137 			"/>
			<polygon class="st2" points="-214.5,135.5 -211.8,141 -211.8,141.7 -215.5,141.7 -216.9,140.6 			"/>
			<polygon class="st2" points="-204.5,135.5 -196.3,141.7 -206.5,141.7 -206.5,137 			"/>
			<polygon class="st2" points="-206.5,137 -206.5,141.7 -211.8,141.7 -211.8,141 			"/>
			<polygon class="st2" points="-206.5,141.7 -196.3,141.7 -87.3,224 -106.6,224 -206.5,148.5 			"/>
			<polygon class="st2" points="-211.8,141.7 -206.5,141.7 -206.5,148.5 -215.5,141.7 			"/>
			<polygon class="st2" points="-217.8,141.7 -215.5,141.7 -206.5,148.5 -206.5,224 -217.8,224 			"/>
			<polygon class="st2" points="-87.3,224 -83.4,224 -83.4,236.4 -90.1,236.4 -90.1,236.4 -85.1,225.8 			"/>
			<polygon class="st2" points="-106.6,224 -87.3,224 -85.1,225.8 -90.1,236.4 			"/>
			<polygon class="st2" points="-206.5,224 -106.6,224 -90.1,236.4 -90.1,236.4 -206.5,236.4 			"/>
			<rect x="-217.8" y="224" class="st2" width="11.3" height="12.4"/>
		</g>
		<g>
		</g>
	</g>
</g>
<g id="Layer_2" class="st0">
	<path class="st5" d="M-148.1,48V35.6h-130.7v201.9h130.7V225h0l-109-82.3h68.9v-12.4h-68.9L-148.1,48L-148.1,48z M-167.3,225h-99.9
		v-75.5L-167.3,225z M-267.2,123.5V48h99.9L-267.2,123.5z"/>
</g>
<g id="Layer_3">
	<g>
		<g>
			<path class="st6" d="M191.2,36.9c-10.6-6-22.2-10.3-34.5-12.6l11.4,22.4L191.2,36.9z"/>
			<path class="st6" d="M114.3,24.3c-12.3,2.3-23.9,6.7-34.5,12.6l23.1,9.8L114.3,24.3z"/>
			<path class="st6" d="M22.4,138.3c0.3,12,2.5,23.6,6.3,34.5l12.9-20L22.4,138.3z"/>
			<path class="st6" d="M242.3,172.7c3.8-10.8,6-22.4,6.3-34.5l-19.2,14.5L242.3,172.7z"/>
			<path class="st6" d="M241.5,95.7c-4.3-11.4-10.3-22-17.9-31.3l-5.6,24.1L241.5,95.7z"/>
			<path class="st6" d="M47.4,64.4c-7.5,9.3-13.6,19.9-17.9,31.3l23.4-7.2L47.4,64.4z"/>
			<path class="st6" d="M193.9,232.3c9.8-5.9,18.6-13.3,26.2-21.8l-23.4-1.2L193.9,232.3z"/>
			<path class="st6" d="M118.6,247.3c5.5,0.8,11.1,1.3,16.9,1.3c5.7,0,11.4-0.4,16.9-1.3l-16.9-15.7L118.6,247.3z"/>
			<path class="st6" d="M50.9,210.5c7.6,8.5,16.4,15.9,26.2,21.8l-2.8-23L50.9,210.5z"/>
			<path class="st6" d="M248.6,138.3l10.6-8c-0.4-10.6-2.2-20.9-5.1-30.7l-12.6-3.9c4.6,12.3,7.2,25.7,7.2,39.7
				C248.6,136.4,248.6,137.3,248.6,138.3z"/>
			<path class="st6" d="M220.1,210.5l13.3,0.7c6.5-8.3,11.9-17.5,16-27.3l-7.2-11.1C237.4,186.8,229.8,199.6,220.1,210.5z"/>
			<path class="st6" d="M21.5,183.8c4.2,9.8,9.6,19,16,27.3l13.3-0.7c-9.7-10.9-17.3-23.7-22.2-37.7L21.5,183.8z"/>
			<path class="st6" d="M78.7,245.5c9.4,4.9,19.5,8.6,30.2,10.9l9.8-9.1c-15-2.2-29.1-7.4-41.6-15L78.7,245.5z"/>
			<path class="st6" d="M162.1,256.4c10.6-2.3,20.8-6,30.2-10.9l1.6-13.2c-12.5,7.5-26.5,12.7-41.6,15L162.1,256.4z"/>
			<path class="st6" d="M29.5,95.7l-12.6,3.9c-2.9,9.8-4.7,20-5.1,30.7l10.6,8c0-1,0-1.9,0-2.9C22.4,121.4,24.9,108.1,29.5,95.7z"/>
			<path class="st6" d="M156.7,24.3l-6-11.8c-5-0.6-10-0.9-15.2-0.9c-5.1,0-10.2,0.3-15.2,0.9l-6,11.8c6.9-1.3,13.9-2,21.2-2
				C142.7,22.3,149.8,23,156.7,24.3z"/>
			<path class="st6" d="M223.6,64.4l3-12.9c-6.9-7.5-14.7-14.2-23.3-19.8l-12.1,5.1C203.6,44,214.7,53.3,223.6,64.4z"/>
			<path class="st6" d="M79.8,36.9l-12.1-5.1C59.2,37.4,51.3,44,44.4,51.5l3,12.9C56.3,53.3,67.4,44,79.8,36.9z"/>
		</g>
		<g id="XMLID_6_">
			<g>
				<path class="st2" d="M135.5,22.5c62.2,0,112.7,50.5,112.7,112.7c0,62.2-50.5,112.7-112.7,112.7S22.8,197.4,22.8,135.2
					C22.8,73,73.3,22.5,135.5,22.5z M231.9,135.2c0-33.9-17.5-63.7-43.9-80.9c-15.1-9.8-33.1-15.5-52.4-15.5s-37.4,5.7-52.4,15.5
					c-26.4,17.2-43.9,47-43.9,80.9c0,33.9,17.5,63.8,44,80.9c15.1,9.8,33,15.4,52.3,15.4s37.3-5.7,52.3-15.4
					C214.3,199,231.9,169.1,231.9,135.2z"/>
				<path d="M187.7,64.7v-9.9l0.3-0.4c26.4,17.2,43.9,47,43.9,80.9c0,33.9-17.5,63.8-44,80.9l-0.2-0.3V206l-86.9-65.7h55v-9.9h-55
					L187.7,64.7z"/>
				<path d="M187.9,54.3l-0.3,0.4H83.3l-0.3-0.4c15.1-9.8,33.1-15.5,52.4-15.5S172.8,44.5,187.9,54.3z"/>
				<path d="M187.7,215.9l0.2,0.3c-15.1,9.8-33,15.4-52.3,15.4s-37.3-5.7-52.3-15.4l0.2-0.2H187.7z"/>
				<path class="st2" d="M187.7,64.7l-86.9,65.7h55v9.9h-55l86.9,65.7v9.9H83.3V54.7h104.3V64.7z M96.2,117.4l67.2-50.8H96.2V117.4z
					 M96.2,203.7h67.2L96.2,153V203.7z"/>
				<polygon points="163.4,66.7 96.2,117.4 96.2,66.7 				"/>
				<polygon points="163.4,203.7 96.2,203.7 96.2,153 				"/>
				<path d="M83.3,54.7v161.1l-0.2,0.2c-26.5-17.2-44-47-44-80.9c0-33.9,17.5-63.7,43.9-80.9L83.3,54.7z"/>
			</g>
			<g>
				<polyline class="st7" points="187.7,64.7 187.7,64.7 187.7,54.7 83.3,54.7 83.3,215.9 187.7,215.9 187.7,206 				"/>
				<polyline class="st7" points="187.7,206 187.7,206 100.7,140.3 155.7,140.3 155.7,130.3 100.7,130.3 187.7,64.7 				"/>
				<polygon class="st8" points="163.4,203.7 96.2,203.7 96.2,153 				"/>
				<polygon class="st8" points="96.2,117.4 96.2,66.7 163.4,66.7 				"/>
				<path class="st8" d="M248.2,135.2c0,62.2-50.5,112.7-112.7,112.7S22.8,197.4,22.8,135.2C22.8,73,73.3,22.5,135.5,22.5
					S248.2,73,248.2,135.2z"/>
			</g>
		</g>
		<g>
			<path d="M95.6,122.5c0.2,0.4,0.6,0.9,1.1,1.5c0.6,0.5,1.1,1,1.6,1.3c0,0.1-0.1,0.3-0.3,0.7c1.2,0.5,2.1,1.3,2.8,2.3
				c0.7,1.1,1.1,2.3,1.1,3.6c0,1.3-0.4,2.5-1.1,3.6c-0.7,1-1.7,1.8-2.9,2.3c0.2,0.4,0.3,0.8,0.5,1.1c-0.2,0.1-0.6,0.3-1,0.5
				c-0.3,0.2-0.7,0.4-1.1,0.8v1.6c1.2-0.7,2.4-1.5,3.5-2.4c1.6-1.4,2.6-2.7,3-4.1c0.4-1.3,0.7-2.4,0.7-3.3c0-0.8-0.2-1.5-0.5-2.1
				c-0.2-0.4-0.5-0.9-1-1.4c-0.5-0.5-0.8-0.9-1-1.2c1.2,0.4,2.2,1.1,3,2.2c0.9,1.2,1.3,2.6,1.3,4.2c0,0.6-0.1,1.2-0.2,1.8
				c-0.3,1.6-0.9,3-1.6,4.2c-0.6,0.8-1.2,1.6-1.8,2.4c-0.6,0.8-0.8,1.5-0.8,2.3l-2.5-2.3c-0.2,0.1-0.4,0.1-0.5,0.2
				c-0.4,0.2-0.8,0.4-1.1,0.6c1.8,0.7,2.8,1.6,2.8,2.6c0,0.6-0.2,0.9-0.7,0.9c-0.2,0-0.3,0-0.5-0.1c-0.3-0.2-0.5-0.5-0.5-0.8
				c0-0.1,0.1-0.3,0.2-0.8c-0.7-0.5-1.3-0.7-1.8-0.7v1.9c0.4,0.3,0.5,0.6,0.5,1c0,0.3-0.1,0.6-0.4,0.9c-0.3,0.2-0.6,0.4-0.9,0.4
				c-0.3,0-0.6-0.1-0.9-0.4s-0.4-0.5-0.4-0.9c0-0.3,0.2-0.6,0.5-1v-1.9c-0.5,0-1.1,0.2-1.8,0.7c0.1,0.5,0.2,0.7,0.2,0.8
				c0,0.3-0.2,0.6-0.5,0.8c-0.2,0.1-0.3,0.1-0.5,0.1c-0.5,0-0.7-0.3-0.7-0.9c0-1,0.9-1.9,2.8-2.6c-0.4-0.4-1-0.6-1.6-0.8l-2.5,2.3
				c0-0.8-0.3-1.5-0.8-2.3c-0.6-0.8-1.2-1.6-1.8-2.4c-0.7-1.2-1.3-2.6-1.6-4.2c-0.1-0.6-0.2-1.2-0.2-1.8c0-1.6,0.4-3,1.3-4.1
				c0.8-1.1,1.8-1.8,3-2.2c-0.5,0.6-1,1.2-1.6,1.8c-0.6,0.8-0.9,1.7-0.9,2.8c0,1,0.2,2.1,0.7,3.4c0.5,1.4,1.5,2.7,3.1,4.1
				c1,0.9,2.2,1.7,3.5,2.4v-1.6c-0.2-0.2-0.6-0.5-1.1-0.8c-0.2-0.1-0.6-0.3-1-0.5c0.1-0.1,0.2-0.5,0.5-1.1c-1.1-0.5-2.1-1.3-2.8-2.3
				c-0.7-1.1-1.1-2.3-1.1-3.5c0-1.3,0.4-2.4,1.1-3.5c0.7-1,1.6-1.8,2.7-2.3c-0.1-0.3-0.2-0.5-0.3-0.7c0.2-0.2,0.8-0.6,1.6-1.3
				c0.2-0.2,0.4-0.4,0.6-0.8C95.4,122.8,95.5,122.5,95.6,122.5z M94.4,132.4c0-1.5-0.3-3.2-0.9-5.2c-0.9,0.4-1.6,1-2.1,1.9
				c-0.6,0.8-0.8,1.8-0.8,2.8c0,1,0.3,2,0.9,2.8c0.6,0.8,1.3,1.4,2.2,1.8C94.2,135,94.4,133.6,94.4,132.4z M96.8,132.4
				c0,0.5,0.1,1.4,0.4,2.5c0.2,0.8,0.3,1.4,0.4,1.6c0,0.1,0.3-0.1,0.8-0.5c0.6-0.5,1.1-1.1,1.5-1.7c0.5-0.8,0.8-1.6,0.8-2.5
				c0-1-0.3-2-0.9-2.8c-0.6-0.8-1.3-1.5-2.2-1.9C97.1,129.3,96.8,131.1,96.8,132.4z"/>
		</g>
	</g>
	<g class="st0">
		<g id="XMLID_5_" class="st1">
			<g>
				<path d="M-90.2,236.4l0.3,0.4c-18.9,12.3-41.4,19.4-65.6,19.4s-46.7-7.1-65.6-19.4l0.3-0.4H-90.2z"/>
				<polygon points="-109.3,224 -209.3,224 -209.3,148.5 				"/>
				<path d="M-220.9,34.6v201.9l-0.3,0.4c-33.2-21.5-55.1-58.9-55.1-101.4c0-42.5,21.9-79.8,55.1-101.4L-220.9,34.6z"/>
				<path d="M-89.9,34.1l-0.3,0.4h-130.7l-0.3-0.4c18.9-12.3,41.4-19.4,65.6-19.4S-108.8,21.9-89.9,34.1z"/>
				<polygon points="-109.3,47 -209.3,122.5 -209.3,47 				"/>
				<path d="M-90.2,224l-108.9-82.3h68.9v-12.4h-68.9L-90.2,47V34.6l0.3-0.4C-56.7,55.6-34.8,93-34.8,135.5s-21.9,79.9-55.1,101.4
					l-0.3-0.4V224z"/>
				<path class="st2" d="M-155.5,3.3c73,0,132.2,59.2,132.2,132.2c0,73-59.2,132.2-132.2,132.2s-132.2-59.2-132.2-132.2
					C-287.7,62.5-228.5,3.3-155.5,3.3z M-34.8,135.5c0-42.5-21.9-79.8-55.1-101.4c-18.9-12.3-41.4-19.4-65.6-19.4
					s-46.8,7.1-65.6,19.4c-33.2,21.5-55.1,58.9-55.1,101.4c0,42.5,21.9,79.9,55.1,101.4c18.9,12.3,41.4,19.4,65.6,19.4
					s46.7-7.1,65.6-19.4C-56.7,215.4-34.8,178-34.8,135.5z"/>
				<path class="st2" d="M-90.2,47l-108.9,82.3h68.9v12.4h-68.9L-90.2,224v12.4h-130.7V34.6h130.7V47z M-209.3,122.5l99.9-75.5
					h-99.9V122.5z M-209.3,224h99.9l-99.9-75.5V224z"/>
			</g>
			<g>
				<polyline class="st8" points="-90.1,47 -90.2,47 -90.2,34.6 -220.9,34.6 -220.9,236.4 -90.2,236.4 -90.2,224 				"/>
				<polyline class="st8" points="-90.1,224 -90.2,224 -199.1,141.7 -130.1,141.7 -130.1,129.3 -199.1,129.3 -90.2,47 				"/>
				<polygon class="st8" points="-109.3,224 -209.3,224 -209.3,148.5 				"/>
				<polygon class="st8" points="-209.3,122.5 -209.3,47 -109.3,47 				"/>
				<path class="st8" d="M-89.9,34.1C-56.7,55.6-34.8,93-34.8,135.5s-21.9,79.9-55.1,101.4c-18.9,12.3-41.4,19.4-65.6,19.4
					s-46.7-7.1-65.6-19.4c-33.2-21.5-55.1-58.9-55.1-101.4c0-42.5,21.9-79.8,55.1-101.4c18.9-12.3,41.4-19.4,65.6-19.4
					S-108.8,21.9-89.9,34.1z"/>
				<path class="st8" d="M-23.3,135.5c0,73-59.2,132.2-132.2,132.2s-132.2-59.2-132.2-132.2c0-73,59.2-132.2,132.2-132.2
					S-23.3,62.5-23.3,135.5z"/>
			</g>
		</g>
		<g class="st1">
			<path d="M-209.3,127.6c0.1,0.2,0.4,0.5,0.7,0.9c0.4,0.3,0.7,0.6,1,0.8c0,0.1-0.1,0.2-0.2,0.4c0.7,0.3,1.3,0.8,1.8,1.4
				c0.5,0.7,0.7,1.4,0.7,2.2s-0.2,1.5-0.7,2.2c-0.5,0.6-1,1.1-1.8,1.4c0.1,0.3,0.2,0.5,0.3,0.7c-0.1,0.1-0.3,0.2-0.6,0.3
				c-0.2,0.1-0.4,0.3-0.7,0.5v1c0.8-0.4,1.5-0.9,2.1-1.5c1-0.8,1.6-1.7,1.9-2.5c0.3-0.8,0.4-1.5,0.4-2.1c0-0.5-0.1-0.9-0.3-1.3
				c-0.1-0.3-0.3-0.5-0.6-0.9c-0.3-0.3-0.5-0.6-0.6-0.7c0.7,0.2,1.4,0.7,1.9,1.3c0.6,0.7,0.8,1.6,0.8,2.6c0,0.4,0,0.7-0.1,1.1
				c-0.2,1-0.5,1.8-1,2.6c-0.4,0.5-0.7,1-1.1,1.5c-0.3,0.5-0.5,1-0.5,1.4l-1.5-1.4c-0.1,0-0.2,0.1-0.3,0.1c-0.3,0.1-0.5,0.2-0.7,0.4
				c1.1,0.4,1.7,1,1.7,1.6c0,0.4-0.2,0.5-0.5,0.5c-0.1,0-0.2,0-0.3-0.1c-0.2-0.1-0.3-0.3-0.3-0.5c0,0,0-0.2,0.1-0.5
				c-0.4-0.3-0.8-0.4-1.1-0.4v1.2c0.2,0.2,0.3,0.4,0.3,0.6c0,0.2-0.1,0.4-0.2,0.5c-0.2,0.1-0.3,0.2-0.6,0.2c-0.2,0-0.4-0.1-0.5-0.2
				s-0.2-0.3-0.2-0.5c0-0.2,0.1-0.4,0.3-0.6v-1.2c-0.3,0-0.7,0.1-1.1,0.4c0.1,0.3,0.1,0.4,0.1,0.5c0,0.2-0.1,0.4-0.3,0.5
				c-0.1,0.1-0.2,0.1-0.3,0.1c-0.3,0-0.5-0.2-0.5-0.5c0-0.6,0.6-1.2,1.7-1.6c-0.3-0.2-0.6-0.4-1-0.5l-1.5,1.4c0-0.5-0.2-1-0.5-1.4
				c-0.4-0.5-0.7-1-1.1-1.5c-0.5-0.7-0.8-1.6-1-2.6c-0.1-0.4-0.1-0.8-0.1-1.1c0-1,0.3-1.8,0.8-2.6c0.5-0.7,1.1-1.1,1.9-1.3
				c-0.3,0.4-0.6,0.7-1,1.1c-0.4,0.5-0.6,1.1-0.6,1.7c0,0.6,0.1,1.3,0.4,2.1c0.3,0.9,0.9,1.7,1.9,2.5c0.6,0.6,1.4,1.1,2.1,1.5v-1
				c-0.1-0.1-0.4-0.3-0.7-0.5c-0.1-0.1-0.4-0.2-0.6-0.3c0-0.1,0.1-0.3,0.3-0.7c-0.7-0.3-1.3-0.8-1.7-1.4c-0.5-0.7-0.7-1.4-0.7-2.2
				c0-0.8,0.2-1.5,0.7-2.2c0.4-0.6,1-1.1,1.7-1.4c-0.1-0.2-0.1-0.3-0.2-0.5c0.2-0.1,0.5-0.4,1-0.8c0.1-0.1,0.2-0.3,0.4-0.5
				C-209.4,127.8-209.3,127.7-209.3,127.6z M-210,133.8c0-0.9-0.2-2-0.6-3.2c-0.5,0.3-1,0.6-1.3,1.2c-0.3,0.5-0.5,1.1-0.5,1.7
				c0,0.6,0.2,1.2,0.5,1.8c0.3,0.5,0.8,0.9,1.4,1.1C-210.1,135.4-210,134.5-210,133.8z M-208.5,133.8c0,0.3,0.1,0.8,0.2,1.6
				c0.1,0.5,0.2,0.8,0.3,1c0,0,0.2-0.1,0.5-0.3c0.4-0.3,0.7-0.7,0.9-1c0.3-0.5,0.5-1,0.5-1.5c0-0.6-0.2-1.2-0.5-1.7
				c-0.3-0.5-0.8-0.9-1.4-1.1C-208.3,131.9-208.5,133-208.5,133.8z"/>
		</g>
	</g>
</g>
<g id="Layer_5">
	<polygon class="st2" points="184.6,72.6 205.2,57.4 184.6,56.3 	"/>
	<polygon class="st2" points="186.7,199.5 204.6,212.9 185.9,222.9 	"/>
</g>
<g id="Layer_4">
</g>
</svg>
